<svg width="12" height="14" viewBox="0 0 12 14" fill="none" xmlns="http://www.w3.org/2000/svg">
<g id="Group 27">
<path id="Vector" d="M9.45846 4.70892C10.4276 4.70892 11.2133 3.92324 11.2133 2.95407C11.2133 1.98489 10.4276 1.19922 9.45846 1.19922C8.48929 1.19922 7.70361 1.98489 7.70361 2.95407C7.70361 3.92324 8.48929 4.70892 9.45846 4.70892Z" stroke="#ECECEC" stroke-width="1.07991" stroke-linecap="round" stroke-linejoin="round"/>
<path id="Vector_2" d="M2.43905 8.8034C3.40823 8.8034 4.1939 8.01773 4.1939 7.04855C4.1939 6.07937 3.40823 5.2937 2.43905 5.2937C1.46988 5.2937 0.684204 6.07937 0.684204 7.04855C0.684204 8.01773 1.46988 8.8034 2.43905 8.8034Z" stroke="#ECECEC" stroke-width="1.07991" stroke-linecap="round" stroke-linejoin="round"/>
<path id="Vector_3" d="M9.45846 12.8986C10.4276 12.8986 11.2133 12.1129 11.2133 11.1438C11.2133 10.1746 10.4276 9.38892 9.45846 9.38892C8.48929 9.38892 7.70361 10.1746 7.70361 11.1438C7.70361 12.1129 8.48929 12.8986 9.45846 12.8986Z" stroke="#ECECEC" stroke-width="1.07991" stroke-linecap="round" stroke-linejoin="round"/>
<path id="Vector_4" d="M3.95422 7.93237L7.94943 10.2605" stroke="#ECECEC" stroke-width="1.07991" stroke-linecap="round" stroke-linejoin="round"/>
<path id="Vector_5" d="M7.94358 3.83789L3.95422 6.16599" stroke="#ECECEC" stroke-width="1.07991" stroke-linecap="round" stroke-linejoin="round"/>
</g>
</svg>
